# AST/ASF file generated using VICON BodyLanguage
# -----------------------------------------------
:version 1.10
:name VICON
:units
  mass 1.0
  length 0.45
  angle deg
:documentation
   .ast/.asf automatically generated from VICON data using
   VICON BodyBuilder and BodyLanguage model FoxedUp or BRILLIANT.MOD
:root
   order TX TY TZ RX RY RZ
   axis XYZ
   position 0 0 0  
   orientation 0 0 0 
:bonedata
  begin
     id 1 
     name lhipjoint
     direction 0.575328 -0.747301 0.332475 
     length 2.40933 
     axis 0 0 0  XYZ
  end
  begin
     id 2 
     name lfemur
     direction 0.34202 -0.939693 0  
     length 7.31453  
     axis 0 0 20  XYZ
    dof rx ry rz
    limits (-160.0 20.0)
           (-70.0 70.0)
           (-60.0 70.0)
  end
  begin
     id 3 
     name ltibia
     direction 0.34202 -0.939693 0   
     length 7.82185   
     axis 0 0 20   XYZ
    dof rx
    limits (-10.0 170.0)
  end
  begin
     id 4 
     name lfoot
     direction 0.0795993 -0.218697 0.972541   
     length 2.19173   
     axis -90 7.62852e-016 20   XYZ
    dof rx rz
    limits (-45.0 90.0)
           (-70.0 20.0)
  end
  begin
     id 5 
     name ltoes
     direction 1.53537e-011 -4.21894e-011 1   
     length 1.10023   
     axis -90 7.62852e-016 20   XYZ
    dof rx
    limits (-90.0 20.0)
  end
  begin
     id 6 
     name rhipjoint
     direction -0.513884 -0.783789 0.348708   
     length 2.29716  
     axis 0 0 0  XYZ 
  end
  begin
     id 7 
     name rfemur
     direction -0.34202 -0.939693 0   
     length 7.59573   
     axis 0 0 -20   XYZ
    dof rx ry rz
    limits (-160.0 20.0)
           (-70.0 70.0)
           (-70.0 60.0)
  end
  begin
     id 8 
     name rtibia
     direction -0.34202 -0.939693 0   
     length 7.66402   
     axis 0 0 -20   XYZ
    dof rx
    limits (-10.0 170.0)
 end
 begin
     id 9 
     name rfoot
     direction -0.137793 -0.378584 0.915253   
     length 2.27056  
     axis -90 -7.62852e-016 -20   XYZ
    dof rx rz
    limits (-45.0 90.0)
           (-20.0 70.0)
  end
  begin
     id 10 
     name rtoes
     direction -1.53493e-011 -4.22159e-011 1   
     length 1.11766   
     axis -90 -7.62852e-016 -20   XYZ
    dof rx
    limits (-90.0 20.0)
  end
  begin
     id 11 
     name lowerback
     direction -0.00732775 0.998356 -0.05685   
     length 2.16513   
     axis 0 0 0   XYZ
    dof rx ry rz
    limits (-20.0 45.0)
           (-30.0 30.0)
           (-30.0 30.0)
  end
  begin
     id 12 
     name upperback
     direction 0.0218081 0.999627 -0.0164647   
     length 2.16755   
     axis 0 0 0   XYZ
    dof rx ry rz
    limits (-20.0 45.0)
           (-30.0 30.0)
           (-30.0 30.0)
  end
  begin
     id 13 
     name thorax
     direction 0.02365 0.999661 0.0108914   
     length 2.16932   
     axis 0 0 0   XYZ
    dof rx ry rz
    limits (-20.0 45.0)
           (-30.0 30.0)
           (-30.0 30.0)
  end
  begin
     id 14 
     name lowerneck
     direction -0.0523929 0.978385 0.200044   
     length 1.63877   
     axis 0 0 0   XYZ
    dof rx ry rz
    limits (-20.0 45.0)
           (-30.0 30.0)
           (-30.0 30.0)
  end
  begin
     id 15 
     name upperneck
     direction 0.0448674 0.981321 -0.187074   
     length 1.69014   
     axis 0 0 0   XYZ
    dof rx ry rz
    limits (-20.0 45.0)
           (-30.0 30.0)
           (-30.0 30.0)
  end
  begin
     id 16
     name head
     direction 0.0199089 0.996118 -0.0857429  
     length 1.70094  
     axis 0 0 0   XYZ
    dof rx ry rz
    limits (-20.0 45.0)
           (-30.0 30.0)
           (-30.0 30.0)
  end
  begin
     id 17 
     name lclavicle
     direction 0.940366 0.30191 -0.156722  
     length 3.37521  
     axis 0 0 0   XYZ
    dof ry rz
    limits (-20.0 10.0)
           (0.0 20.0)
  end
  begin
     id 18 
     name lhumerus
     direction 1 -4.4897e-011 -1.7911e-027   
     length 5.25287   
     axis 180 -30 -90   XYZ
    dof rx ry rz
    limits (-60.0 90.0)
           (-90.0 90.0)
           (-90.0 90.0)
  end
  begin
     id 19
     name lradius
     direction 1 -4.48951e-011 1.04424e-027   
     length 3.51014   
     axis 180 -30 -90   XYZ
    dof rx
    limits (-10.0 170.0)
  end
  begin
     id 20
     name lwrist
     direction 1 -4.48997e-011 -9.5942e-028   
     length 1.75507   
     axis 8.48502e-016 90 90   XYZ
    dof ry
    limits (-180.0 0.0)
 end
  begin
     id 21 
     name lhand
     direction 1 -4.48831e-011 -1.90777e-027   
     length 0.706179   
     axis 1.22306e-015 90 90   XYZ
    dof rx rz
    limits (-90.0 90.0)
           (-45.0 45.0)
  end
  begin
     id 22 
     name lfingers
     direction 1 -4.49108e-011 -3.85244e-027   
     length 0.569339   
     axis 2.44611e-015 90 90   XYZ
    dof rx
    limits (0.0 90.0)
  end
  begin
     id 23
     name lthumb
     direction 0.707107 -6.34953e-011 0.707107   
     length 0.817461   
     axis -90 45 -1.62303e-014   XYZ
    dof rx rz
    limits (-45.0 45.0)
           (-45.0 45.0)
  end
  begin
     id 24 
     name rclavicle
     direction -0.905329 0.382405 -0.184787   
     length 3.30787  
     axis 0 0 0   XYZ 
    dof ry rz
    limits (-10.0 20.0)
           (-20.0 0.0)
  end
  begin
     id 25 
     name rhumerus
     direction -1 -4.48953e-011 -9.15316e-029  
     length 5.28721   
     axis 180 30 90   XYZ
    dof rx ry rz
    limits (-90.0 60.0)
           (-90.0 90.0)
           (-90.0 90.0)
  end
  begin
     id 26 
     name rradius
     direction -1 -4.48987e-011 9.37824e-028   
     length 3.50544   
     axis 180 30 90   XYZ
    dof rx
    limits (-10.0 170.0)
  end
  begin
     id 27 
     name rwrist
     direction -1 -4.48967e-011 -9.58414e-028   
     length 1.75272   
     axis 8.48502e-016 -90 -90   XYZ
    dof ry
    limits (-180.0 0.0)
  end
  begin
     id 28
     name rhand
     direction -1 -4.48904e-011 -1.91266e-027   
     length 0.884996   
     axis 1.22306e-015 -90 -90   XYZ
    dof rx rz
    limits (-90.0 90.0)
           (-45.0 45.0)
  end
  begin
     id 29
     name rfingers
     direction -1 -4.4909e-011 -3.85015e-027   
     length 0.713507   
     axis 2.44611e-015 -90 -90   XYZ
    dof rx
    limits (0.0 90.0)
  end
  begin
     id 30
     name rthumb
     direction -0.707107 -6.34853e-011 0.707107   
     length 1.02446   
     axis -90 -45 1.62303e-014   XYZ
    dof rx rz
    limits (-45.0 45.0)
           (-45.0 45.0)
  end
:hierarchy
  begin
    root lhipjoint rhipjoint lowerback
    lhipjoint lfemur
    lfemur ltibia
    ltibia lfoot
    lfoot ltoes
    rhipjoint rfemur
    rfemur rtibia
    rtibia rfoot
    rfoot rtoes
    lowerback upperback
    upperback thorax
    thorax lowerneck lclavicle rclavicle
    lowerneck upperneck
    upperneck head
    lclavicle lhumerus
    lhumerus lradius
    lradius lwrist
    lwrist lhand lthumb
    lhand lfingers
    rclavicle rhumerus
    rhumerus rradius
    rradius rwrist
    rwrist rhand rthumb
    rhand rfingers
  end

#!OML:ASF F:\twosubjects\two\Thursday\Session 1\justin.ASF
:FULLY-SPECIFIED
:DEGREES
45
root 11.5704 17.9213 -16.4584 6.82649 -70.5879 1.14904
lowerback -4.24224 1.85354 -1.33155
upperback -1.37175 2.47584 2.16892
thorax 0.814199 1.23345 3.0932
lowerneck -17.1615 8.76844 -1.86714
upperneck 28.7699 13.7617 -2.59639
head 12.4467 5.42288 1.43999
rclavicle 7.03698e-014 6.36111e-015
rhumerus -32.3129 -18.3987 -75.031
rradius 30.0128
rwrist -3.982
rhand -16.3641 12.1349
rfingers 7.12502
rthumb 9.84889 -17.6147
lclavicle 7.03698e-014 6.36111e-015
lhumerus -31.6965 10.819 84.4398
lradius 28.5464
lwrist -16.2321
lhand 0.323038 39.8989
lfingers 7.12502
lthumb 25.8998 68.1548
rfemur -8.64923 -2.54708 22.3303
rtibia 23.5652
rfoot -20.437 -15.3447
rtoes -7.55916
lfemur -4.05519 3.24208 -16.4763
ltibia 8.33191
lfoot -9.67056 -1.98358
ltoes -16.6865
46
root 11.5711 17.9215 -16.4596 6.86542 -70.5857 1.13501
lowerback -4.24807 0.870372 -1.79401
upperback -1.4362 1.16295 3.12323
thorax 0.803003 0.575337 4.28363
lowerneck -16.6892 9.58373 -3.48419
upperneck 28.5058 15.3773 -2.706
head 12.1288 5.977 1.84364
rclavicle 5.66536e-014 -1.59028e-014
rhumerus -31.4077 -14.7291 -75.3535
rradius 29.7983
rwrist -4.40676
rhand -16.4688 12.0205
rfingers 7.12502
rthumb 9.74789 -17.7339
lclavicle 5.66536e-014 -1.59028e-014
lhumerus -32.2578 14.0559 84.3495
lradius 28.0817
lwrist -16.2469
lhand -0.0522032 39.5683
lfingers 7.12502
lthumb 25.5404 67.8763
rfemur -8.70319 -2.54231 22.3457
rtibia 23.609
rfoot -20.4669 -15.367
rtoes -7.78669
lfemur -4.05697 3.2422 -16.4701
ltibia 8.2684
lfoot -9.56764 -2.06462
ltoes -16.2488
47
root 11.5708 17.9207 -16.4607 6.84024 -70.6003 1.16745
lowerback -4.24202 1.63117 -1.45279
upperback -1.34494 2.18041 2.36773
thorax 0.847678 1.08489 3.3542
lowerneck -17.3044 8.92478 -2.32153
upperneck 28.883 14.0722 -2.38417
head 12.4659 5.53025 1.64389
rclavicle 9.18385e-014 -1.43125e-014
rhumerus -31.9531 -17.4254 -75.2497
rradius 29.9749
rwrist -4.19597
rhand -16.4443 12.0113
rfingers 7.12502
rthumb 9.77155 -17.742
lclavicle 9.18385e-014 -1.43125e-014
lhumerus -31.3961 11.2522 84.5111
lradius 27.8229
lwrist -15.9745
lhand -0.319508 39.4572
lfingers 7.12502
lthumb 25.2843 67.8016
rfemur -8.71541 -2.66163 22.3329
rtibia 23.6089
rfoot -20.4046 -15.2635
rtoes -8.3651
lfemur -4.06812 3.25632 -16.4764
ltibia 8.30454
lfoot -9.52378 -2.12001
ltoes -15.7816
48
root 11.5707 17.9213 -16.4621 6.84823 -70.5904 1.14167
lowerback -4.19696 0.903029 -1.68122
upperback -1.45887 1.20428 3.01865
thorax 0.752393 0.597154 4.11133
lowerneck -16.883 9.57604 -3.52357
upperneck 28.8688 15.2964 -2.2933
head 12.2642 5.96496 2.0088
rclavicle -6.21202e-015 1.90833e-014
rhumerus -31.4237 -14.9055 -75.4011
rradius 29.7095
rwrist -4.27771
rhand -16.3812 11.9794
rfingers 7.12502
rthumb 9.83241 -17.7711
lclavicle -6.21202e-015 1.90833e-014
lhumerus -32.2243 13.6103 84.3031
lradius 28.0514
lwrist -16.0105
lhand -0.618866 39.4832
lfingers 7.12502
lthumb 24.9975 67.8678
rfemur -8.69034 -2.76617 22.3406
rtibia 23.5864
rfoot -20.3679 -15.1435
rtoes -8.30749
lfemur -4.07163 3.24765 -16.4524
ltibia 8.39319
lfoot -9.66794 -2.02868
ltoes -15.5035
49
root 11.5682 17.9219 -16.4604 6.8947 -70.6608 1.08073
lowerback -4.17808 1.73344 -1.25267
upperback -1.39186 2.31035 2.25911
thorax 0.767565 1.15101 3.13179
lowerneck -17.3788 8.87375 -2.32798
upperneck 29.1788 13.9447 -2.12422
head 12.574 5.48944 1.73319
rclavicle 1.93815e-014 2.38542e-014
rhumerus -32.0452 -17.9063 -75.1322
rradius 29.8361
rwrist -3.94055
rhand -16.4281 11.8055
rfingers 7.12502
rthumb 9.78715 -17.9471
lclavicle 1.93815e-014 2.38542e-014
lhumerus -31.397 10.4706 84.616
lradius 27.8311
lwrist -15.4982
lhand -0.620464 39.6889
lfingers 7.12502
lthumb 24.9959 68.0737
rfemur -8.66478 -2.73627 22.3397
rtibia 23.5818
rfoot -20.4471 -15.0614
rtoes -7.95536
lfemur -4.04341 3.31992 -16.4305
ltibia 8.45678
lfoot -9.8213 -1.99175
ltoes -15.1112
50
root 11.5663 17.9205 -16.459 6.8708 -70.7119 1.11571
lowerback -4.2364 1.21459 -1.52327
upperback -1.41117 1.61755 2.81649
thorax 0.799512 0.803151 3.83208
lowerneck -17.0883 9.31518 -3.28584
upperneck 29.0442 14.8645 -2.22947
head 12.3919 5.79097 1.95303
rclavicle -3.75703e-014 -1.27222e-014
rhumerus -31.5463 -15.8476 -75.2183
rradius 29.7103
rwrist -4.17137
rhand -16.4075 11.8203
rfingers 7.12502
rthumb 9.807 -17.9313
lclavicle -3.75703e-014 -1.27222e-014
lhumerus -31.8825 12.3835 84.6018
lradius 27.9756
lwrist -15.6073
lhand -0.699471 39.6834
lfingers 7.12502
lthumb 24.9202 68.0787
rfemur -8.67592 -2.74397 22.3096
rtibia 23.6
rfoot -20.4917 -15.0278
rtoes -8.03657
lfemur -4.04996 3.37037 -16.441
ltibia 8.49227
lfoot -9.88568 -2.0891
ltoes -14.5558
51
root 11.5679 17.9193 -16.4607 6.78443 -70.6659 1.21619
lowerback -4.20191 1.93066 -1.23687
upperback -1.35598 2.57556 2.11816
thorax 0.808235 1.28322 2.99081
lowerneck -17.4029 8.66146 -2.10155
upperneck 29.1178 13.5867 -2.1839
head 12.5779 5.35165 1.62215
rclavicle -3.8763e-014 1.98785e-014
rhumerus -32.2049 -18.366 -75.0242
rradius 29.9667
rwrist -4.02746
rhand -16.1675 12.1522
rfingers 7.12502
rthumb 10.0386 -17.5884
lclavicle -3.8763e-014 1.98785e-014
lhumerus -31.1543 9.833 84.7949
lradius 27.7846
lwrist -15.4429
lhand -0.875132 39.7142
lfingers 7.12502
lthumb 24.7519 68.1327
rfemur -8.71489 -2.82612 22.2882
rtibia 23.6359
rfoot -20.437 -15.0735
rtoes -8.4016
lfemur -4.09346 3.32121 -16.4706
ltibia 8.51805
lfoot -9.92603 -2.08747
ltoes -14.457
52
root 11.5691 17.9185 -16.4621 6.66359 -70.6454 1.33987
lowerback -4.20282 1.07555 -1.68409
upperback -1.40533 1.43606 2.94827
thorax 0.793126 0.7124 4.05103
lowerneck -16.8448 9.36052 -3.48011
upperneck 28.7575 14.9823 -2.35877
head 12.2249 5.83035 1.92724
rclavicle 1.98288e-014 -9.54166e-015
rhumerus -31.4018 -15.4423 -75.1729
rradius 29.6568
rwrist -3.96705
rhand -15.9279 12.3127
rfingers 7.12502
rthumb 10.2697 -17.4166
lclavicle 1.98288e-014 -9.54166e-015
lhumerus -31.9515 12.9973 84.6477
lradius 27.9765
lwrist -15.715
lhand -0.968124 39.6877
lfingers 7.12502
lthumb 24.6628 68.1184
rfemur -8.74481 -2.78988 22.2596
rtibia 23.6929
rfoot -20.4648 -15.14
rtoes -8.12176
lfemur -4.11732 3.29535 -16.5147
ltibia 8.51073
lfoot -9.76576 -2.05892
ltoes -13.9126
53
root 11.568 17.9175 -16.4621 6.67349 -70.6539 1.29111
lowerback -4.14454 2.08789 -1.22079
upperback -1.28683 2.78772 1.97014
thorax 0.842629 1.38892 2.83787
lowerneck -17.5088 8.52409 -1.77695
upperneck 29.0463 13.3221 -2.27715
head 12.6038 5.25978 1.50211
rclavicle -1.00386e-014 -1.11319e-014
rhumerus -32.139 -19.3945 -74.8652
rradius 29.7553
rwrist -3.28746
rhand -15.8319 12.4882
rfingers 7.12502
rthumb 10.3623 -17.2365
lclavicle -1.00386e-014 -1.11319e-014
lhumerus -30.8425 9.15485 84.8685
lradius 27.6149
lwrist -15.1893
lhand -0.925177 39.6744
lfingers 7.12502
lthumb 24.7039 68.0995
rfemur -8.7229 -2.72502 22.2801
rtibia 23.7398
rfoot -20.5432 -15.153
rtoes -7.47265
lfemur -4.08627 3.30406 -16.4898
ltibia 8.49014
lfoot -9.61108 -2.08121
ltoes -13.4842
54
root 11.5677 17.9165 -16.4614 6.75279 -70.6345 1.15493
lowerback -4.15919 0.805328 -1.70755
upperback -1.28679 1.06972 3.19366
thorax 0.915489 0.524943 4.30361
lowerneck -16.7823 9.60113 -3.77192
upperneck 28.4491 15.4656 -2.6394
head 12.0935 5.99717 1.92545
rclavicle -1.47647e-013 -2.14687e-014
rhumerus -30.8322 -14.8792 -75.2223
rradius 29.3052
rwrist -3.61967
rhand -15.8196 12.618
rfingers 7.12502
rthumb 10.3742 -17.1061
lclavicle -1.47647e-013 -2.14687e-014
lhumerus -31.9902 13.8333 84.5575
lradius 28.0368
lwrist -15.6537
lhand -0.81904 39.6435
lfingers 7.12502
lthumb 24.8056 68.0547
rfemur -8.68413 -2.92224 22.3148
rtibia 23.7606
rfoot -20.5299 -14.9913
rtoes -7.5515
lfemur -4.02678 3.28719 -16.4384
ltibia 8.5156
lfoot -9.73967 -2.07245
ltoes -14.5767
55
root 11.5677 17.9148 -16.4613 6.82659 -70.6118 1.01652
lowerback -4.07412 2.16884 -1.03293
upperback -1.21364 2.88948 1.88534
thorax 0.886468 1.43891 2.64861
lowerneck -16.9905 8.39972 -1.32064
upperneck 28.38 13.099 -2.81735
head 12.3126 5.18618 1.15516
rclavicle -1.93318e-014 -5.56597e-015
rhumerus -32.146 -19.6429 -74.9163
rradius 29.726
rwrist -3.40394
rhand -15.8528 12.6527
rfingers 7.12502
rthumb 10.3422 -17.073
lclavicle -1.93318e-014 -5.56597e-015
lhumerus -30.7726 8.93068 84.8135
lradius 27.7431
lwrist -15.2787
lhand -0.723787 39.7736
lfingers 7.12502
lthumb 24.8969 68.1722
rfemur -8.63538 -3.12631 22.3479
rtibia 23.7688
rfoot -20.5029 -14.8419
rtoes -8.23941
lfemur -3.96481 3.26658 -16.3866
ltibia 8.5882
lfoot -9.87832 -2.10175
ltoes -14.7842
56
root 11.5659 17.9136 -16.4627 6.69223 -70.6654 1.1281
lowerback -4.02653 0.792036 -1.77557
upperback -1.25252 1.05413 3.22241
thorax 0.876045 0.517613 4.36929
lowerneck -16.5192 9.61268 -3.53342
upperneck 28.1174 15.4713 -2.99679
head 11.9684 6.00512 1.73793
rclavicle -6.21202e-014 -1.43125e-014
rhumerus -30.8271 -14.5892 -75.3458
rradius 29.4188
rwrist -3.80242
rhand -15.8248 12.5413
rfingers 7.12502
rthumb 10.3691 -17.1831
lclavicle -6.21202e-014 -1.43125e-014
lhumerus -31.9964 14.0619 84.5306
lradius 28.1366
lwrist -15.7893
lhand -0.822639 39.8145
lfingers 7.12502
lthumb 24.8022 68.2261
rfemur -8.61985 -3.10486 22.3037
rtibia 23.7958
rfoot -20.541 -14.8109
rtoes -8.69823
lfemur -3.94647 3.31418 -16.4204
ltibia 8.62916
lfoot -9.8588 -2.14419
ltoes -14.1042
57
root 11.5651 17.9141 -16.4645 6.45868 -70.7157 1.42952
lowerback -3.99182 1.8456 -1.47568
upperback -1.2445 2.47054 2.21401
thorax 0.79716 1.23084 3.21375
lowerneck -17.2049 8.7599 -1.74754
upperneck 28.744 13.7582 -2.74189
head 12.4689 5.4138 1.37052
rclavicle 4.55217e-014 -2.22639e-014
rhumerus -31.8822 -18.2275 -75.0744
rradius 29.8101
rwrist -3.60557
rhand -15.9672 12.5147
rfingers 7.12502
rthumb 10.2318 -17.2164
lclavicle 4.55217e-014 -2.22639e-014
lhumerus -31.0846 10.2193 84.7893
lradius 27.847
lwrist -15.4376
lhand -0.86465 39.9101
lfingers 7.12502
lthumb 24.7619 68.3273
rfemur -8.70483 -3.0622 22.1988
rtibia 23.8615
rfoot -20.6384 -14.7652
rtoes -8.51083
lfemur -4.01589 3.35564 -16.5297
ltibia 8.59055
lfoot -9.7873 -2.15101
ltoes -14.7812
58
root 11.5655 17.9136 -16.4653 6.32175 -70.6874 1.62745
lowerback -3.97712 2.23396 -1.40043
upperback -1.2416 2.99256 1.84619
thorax 0.781151 1.49269 2.81326
lowerneck -17.543 8.40866 -1.05296
upperneck 28.937 13.095 -2.8003
head 12.6692 5.16946 1.16382
rclavicle 4.46769e-014 1.11319e-014
rhumerus -32.3026 -19.5085 -74.9368
rradius 30.0167
rwrist -3.6583
rhand -16.0496 12.5458
rfingers 7.12502
rthumb 10.1523 -17.1893
lclavicle 4.46769e-014 1.11319e-014
lhumerus -30.7606 8.65652 84.9609
lradius 27.7884
lwrist -15.1831
lhand -0.810318 40.0026
lfingers 7.12502
lthumb 24.814 68.4126
rfemur -8.80384 -3.0764 22.133
rtibia 23.9569
rfoot -20.7182 -14.7505
rtoes -8.38806
lfemur -4.04805 3.32185 -16.6116
ltibia 8.5014
lfoot -9.77 -2.12285
ltoes -15.4053
